<svg xmlns="http://www.w3.org/2000/svg" xmlns:xlink="http://www.w3.org/1999/xlink" width="500" zoomAndPan="magnify" viewBox="0 0 375 374.999991" height="500" preserveAspectRatio="xMidYMid meet" version="1.0"><defs><filter x="0%" y="0%" width="100%" height="100%" id="d2ed9f146f"><feColorMatrix values="0 0 0 0 1 0 0 0 0 1 0 0 0 0 1 0 0 0 1 0" color-interpolation-filters="sRGB"/></filter><g/><clipPath id="b75a53198e"><path d="M 104.324219 111.277344 L 257 111.277344 L 257 260.273438 L 104.324219 260.273438 Z M 104.324219 111.277344 " clip-rule="nonzero"/></clipPath><clipPath id="f63837a33f"><path d="M 180.585938 111.277344 C 138.46875 111.277344 104.324219 144.632812 104.324219 185.777344 C 104.324219 226.921875 138.46875 260.273438 180.585938 260.273438 C 222.703125 260.273438 256.84375 226.921875 256.84375 185.777344 C 256.84375 144.632812 222.703125 111.277344 180.585938 111.277344 Z M 180.585938 111.277344 " clip-rule="nonzero"/></clipPath><clipPath id="0304cf9d71"><path d="M 109.257812 116.035156 L 252 116.035156 L 252 255.519531 L 109.257812 255.519531 Z M 109.257812 116.035156 " clip-rule="nonzero"/></clipPath><clipPath id="53d18db1d7"><path d="M 180.585938 116.035156 C 141.191406 116.035156 109.257812 147.257812 109.257812 185.777344 C 109.257812 224.292969 141.191406 255.519531 180.585938 255.519531 C 219.980469 255.519531 251.914062 224.292969 251.914062 185.777344 C 251.914062 147.257812 219.980469 116.035156 180.585938 116.035156 Z M 180.585938 116.035156 " clip-rule="nonzero"/></clipPath><clipPath id="bd2e99eaf7"><path d="M 114.015625 121.578125 L 247 121.578125 L 247 249.976562 L 114.015625 249.976562 Z M 114.015625 121.578125 " clip-rule="nonzero"/></clipPath><clipPath id="7ef4de5c55"><path d="M 180.585938 121.578125 C 143.820312 121.578125 114.015625 150.320312 114.015625 185.777344 C 114.015625 221.234375 143.820312 249.976562 180.585938 249.976562 C 217.351562 249.976562 247.15625 221.234375 247.15625 185.777344 C 247.15625 150.320312 217.351562 121.578125 180.585938 121.578125 Z M 180.585938 121.578125 " clip-rule="nonzero"/></clipPath><clipPath id="175f89af8c"><path d="M 174.636719 237.730469 L 183.636719 237.730469 L 183.636719 249.730469 L 174.636719 249.730469 Z M 174.636719 237.730469 " clip-rule="nonzero"/></clipPath><clipPath id="14da68879e"><path d="M 174.636719 239.980469 L 174.636719 247.726562 C 174.636719 248.96875 175.644531 249.976562 176.886719 249.976562 L 181.25 249.976562 C 182.492188 249.976562 183.5 248.96875 183.5 247.726562 L 183.5 239.980469 C 183.5 238.738281 182.492188 237.730469 181.25 237.730469 L 176.886719 237.730469 C 175.644531 237.730469 174.636719 238.738281 174.636719 239.980469 Z M 174.636719 239.980469 " clip-rule="nonzero"/></clipPath><clipPath id="5511d9c4e2"><path d="M 186.699219 229.066406 L 195.699219 229.066406 L 195.699219 248.566406 L 186.699219 248.566406 Z M 186.699219 229.066406 " clip-rule="nonzero"/></clipPath><clipPath id="63c06269bd"><path d="M 186.699219 231.316406 L 186.699219 246.5 C 186.699219 247.742188 187.707031 248.75 188.949219 248.75 L 193.3125 248.75 C 194.554688 248.75 195.5625 247.742188 195.5625 246.5 L 195.5625 231.316406 C 195.5625 230.074219 194.554688 229.066406 193.3125 229.066406 L 188.949219 229.066406 C 187.707031 229.066406 186.699219 230.074219 186.699219 231.316406 Z M 186.699219 231.316406 " clip-rule="nonzero"/></clipPath><clipPath id="08c33959a8"><path d="M 198.667969 212.492188 L 207.667969 212.492188 L 207.667969 245.492188 L 198.667969 245.492188 Z M 198.667969 212.492188 " clip-rule="nonzero"/></clipPath><clipPath id="bea9f192d9"><path d="M 198.667969 214.742188 L 198.667969 243.390625 C 198.667969 244.632812 199.671875 245.640625 200.917969 245.640625 L 205.28125 245.640625 C 206.523438 245.640625 207.53125 244.632812 207.53125 243.390625 L 207.53125 214.742188 C 207.53125 213.5 206.523438 212.492188 205.28125 212.492188 L 200.917969 212.492188 C 199.671875 212.492188 198.667969 213.5 198.667969 214.742188 Z M 198.667969 214.742188 " clip-rule="nonzero"/></clipPath><clipPath id="a0f385b761"><path d="M 210.632812 195.726562 L 219.632812 195.726562 L 219.632812 237.726562 L 210.632812 237.726562 Z M 210.632812 195.726562 " clip-rule="nonzero"/></clipPath><clipPath id="0acf054c90"><path d="M 210.632812 197.976562 L 210.632812 235.480469 C 210.632812 236.722656 211.640625 237.730469 212.882812 237.730469 L 217.246094 237.730469 C 218.488281 237.730469 219.496094 236.722656 219.496094 235.480469 L 219.496094 197.976562 C 219.496094 196.734375 218.488281 195.726562 217.246094 195.726562 L 212.882812 195.726562 C 211.640625 195.726562 210.632812 196.734375 210.632812 197.976562 Z M 210.632812 197.976562 " clip-rule="nonzero"/></clipPath><clipPath id="65c380bdd6"><path d="M 222.601562 176.074219 L 231.601562 176.074219 L 231.601562 222.574219 L 222.601562 222.574219 Z M 222.601562 176.074219 " clip-rule="nonzero"/></clipPath><clipPath id="e527b55f8c"><path d="M 222.601562 178.324219 L 222.601562 220.261719 C 222.601562 221.503906 223.609375 222.511719 224.851562 222.511719 L 229.214844 222.511719 C 230.457031 222.511719 231.464844 221.503906 231.464844 220.261719 L 231.464844 178.324219 C 231.464844 177.082031 230.457031 176.074219 229.214844 176.074219 L 224.851562 176.074219 C 223.609375 176.074219 222.601562 177.082031 222.601562 178.324219 Z M 222.601562 178.324219 " clip-rule="nonzero"/></clipPath><clipPath id="3401005400"><path d="M 134.257812 182.199219 L 138.007812 182.199219 L 138.007812 185.949219 L 134.257812 185.949219 Z M 134.257812 182.199219 " clip-rule="nonzero"/></clipPath><clipPath id="39435a7254"><path d="M 136.230469 182.199219 C 135.140625 182.199219 134.257812 183.085938 134.257812 184.175781 C 134.257812 185.265625 135.140625 186.148438 136.230469 186.148438 C 137.320312 186.148438 138.207031 185.265625 138.207031 184.175781 C 138.207031 183.085938 137.320312 182.199219 136.230469 182.199219 Z M 136.230469 182.199219 " clip-rule="nonzero"/></clipPath><clipPath id="ae171d64a8"><path d="M 140.238281 182.199219 L 143.988281 182.199219 L 143.988281 185.949219 L 140.238281 185.949219 Z M 140.238281 182.199219 " clip-rule="nonzero"/></clipPath><clipPath id="de4fd4f353"><path d="M 142.214844 182.199219 C 141.125 182.199219 140.238281 183.085938 140.238281 184.175781 C 140.238281 185.265625 141.125 186.148438 142.214844 186.148438 C 143.304688 186.148438 144.1875 185.265625 144.1875 184.175781 C 144.1875 183.085938 143.304688 182.199219 142.214844 182.199219 Z M 142.214844 182.199219 " clip-rule="nonzero"/></clipPath><clipPath id="760566b4a3"><path d="M 131.058594 176.46875 L 148.304688 176.46875 L 148.304688 192 L 131.058594 192 Z M 131.058594 176.46875 " clip-rule="nonzero"/></clipPath><clipPath id="4f4630da92"><path d="M 139.671875 176.46875 C 134.914062 176.46875 131.058594 179.933594 131.058594 184.207031 C 131.058594 188.484375 134.914062 191.949219 139.671875 191.949219 C 144.433594 191.949219 148.289062 188.484375 148.289062 184.207031 C 148.289062 179.933594 144.433594 176.46875 139.671875 176.46875 Z M 139.671875 176.46875 " clip-rule="nonzero"/></clipPath><clipPath id="0dd90edf51"><path d="M 132.132812 216.335938 L 136.535156 216.335938 L 136.535156 222.546875 L 132.132812 222.546875 Z M 132.132812 216.335938 " clip-rule="nonzero"/></clipPath><clipPath id="7f7bf3d7ce"><path d="M 134.335938 216.335938 C 135.550781 216.335938 136.535156 217.324219 136.535156 218.539062 L 136.535156 220.34375 C 136.535156 221.558594 135.550781 222.546875 134.335938 222.546875 C 133.117188 222.546875 132.132812 221.558594 132.132812 220.34375 L 132.132812 218.539062 C 132.132812 217.324219 133.117188 216.335938 134.335938 216.335938 Z M 134.335938 216.335938 " clip-rule="nonzero"/></clipPath><clipPath id="0449bc5b9e"><path d="M 159.246094 216.335938 L 163.484375 216.335938 L 163.484375 223.34375 L 159.246094 223.34375 Z M 159.246094 216.335938 " clip-rule="nonzero"/></clipPath><clipPath id="87c5b2be16"><path d="M 161.363281 216.335938 C 161.925781 216.335938 162.464844 216.5625 162.863281 216.957031 C 163.261719 217.355469 163.484375 217.894531 163.484375 218.457031 L 163.484375 221.21875 C 163.484375 221.78125 163.261719 222.320312 162.863281 222.71875 C 162.464844 223.113281 161.925781 223.339844 161.363281 223.339844 C 160.800781 223.339844 160.261719 223.113281 159.867188 222.71875 C 159.46875 222.320312 159.246094 221.78125 159.246094 221.21875 L 159.246094 218.457031 C 159.246094 217.894531 159.46875 217.355469 159.867188 216.957031 C 160.261719 216.5625 160.800781 216.335938 161.363281 216.335938 Z M 161.363281 216.335938 " clip-rule="nonzero"/></clipPath><clipPath id="99751ae099"><path d="M 156.605469 150.96875 L 164.777344 150.96875 L 164.777344 159.140625 L 156.605469 159.140625 Z M 156.605469 150.96875 " clip-rule="nonzero"/></clipPath><clipPath id="c1eb086059"><path d="M 160.691406 150.96875 C 158.433594 150.96875 156.605469 152.796875 156.605469 155.054688 C 156.605469 157.3125 158.433594 159.140625 160.691406 159.140625 C 162.945312 159.140625 164.777344 157.3125 164.777344 155.054688 C 164.777344 152.796875 162.945312 150.96875 160.691406 150.96875 Z M 160.691406 150.96875 " clip-rule="nonzero"/></clipPath><clipPath id="97ed1a6b1f"><path d="M 156.605469 167.902344 L 164.777344 167.902344 L 164.777344 176.074219 L 156.605469 176.074219 Z M 156.605469 167.902344 " clip-rule="nonzero"/></clipPath><clipPath id="7df500b264"><path d="M 160.691406 167.902344 C 158.433594 167.902344 156.605469 169.734375 156.605469 171.988281 C 156.605469 174.246094 158.433594 176.074219 160.691406 176.074219 C 162.945312 176.074219 164.777344 174.246094 164.777344 171.988281 C 164.777344 169.734375 162.945312 167.902344 160.691406 167.902344 Z M 160.691406 167.902344 " clip-rule="nonzero"/></clipPath><clipPath id="5379225606"><path d="M 204.851562 150.96875 L 213.023438 150.96875 L 213.023438 159.140625 L 204.851562 159.140625 Z M 204.851562 150.96875 " clip-rule="nonzero"/></clipPath><clipPath id="5b65a5e8e3"><path d="M 208.9375 150.96875 C 206.679688 150.96875 204.851562 152.796875 204.851562 155.054688 C 204.851562 157.3125 206.679688 159.140625 208.9375 159.140625 C 211.195312 159.140625 213.023438 157.3125 213.023438 155.054688 C 213.023438 152.796875 211.195312 150.96875 208.9375 150.96875 Z M 208.9375 150.96875 " clip-rule="nonzero"/></clipPath><clipPath id="d7514dc990"><path d="M 204.851562 167.902344 L 213.023438 167.902344 L 213.023438 176.074219 L 204.851562 176.074219 Z M 204.851562 167.902344 " clip-rule="nonzero"/></clipPath><clipPath id="39cb645f92"><path d="M 208.9375 167.902344 C 206.679688 167.902344 204.851562 169.734375 204.851562 171.988281 C 204.851562 174.246094 206.679688 176.074219 208.9375 176.074219 C 211.195312 176.074219 213.023438 174.246094 213.023438 171.988281 C 213.023438 169.734375 211.195312 167.902344 208.9375 167.902344 Z M 208.9375 167.902344 " clip-rule="nonzero"/></clipPath><clipPath id="0ce17300a6"><path d="M 158.148438 186.152344 L 166.933594 186.152344 L 166.933594 194.9375 L 158.148438 194.9375 Z M 158.148438 186.152344 " clip-rule="nonzero"/></clipPath><clipPath id="a9bb2cfb12"><path d="M 162.542969 186.152344 C 160.117188 186.152344 158.148438 188.117188 158.148438 190.542969 C 158.148438 192.96875 160.117188 194.9375 162.542969 194.9375 C 164.96875 194.9375 166.933594 192.96875 166.933594 190.542969 C 166.933594 188.117188 164.96875 186.152344 162.542969 186.152344 Z M 162.542969 186.152344 " clip-rule="nonzero"/></clipPath><clipPath id="55d6550b19"><path d="M 135 208 L 160 208 L 160 236 L 135 236 Z M 135 208 " clip-rule="nonzero"/></clipPath><clipPath id="ddde49e080"><path d="M 140.023438 205.121094 L 162.726562 212.894531 L 154.953125 235.601562 L 132.246094 227.824219 Z M 140.023438 205.121094 " clip-rule="nonzero"/></clipPath><clipPath id="da86b332d8"><path d="M 140.023438 205.121094 L 162.726562 212.894531 L 154.953125 235.601562 L 132.246094 227.824219 Z M 140.023438 205.121094 " clip-rule="nonzero"/></clipPath><clipPath id="1c6c60e5b0"><path d="M 138.875 212.90625 L 156.167969 212.90625 L 156.167969 227.5625 L 138.875 227.5625 Z M 138.875 212.90625 " clip-rule="nonzero"/></clipPath><clipPath id="3304324b70"><path d="M 147.507812 212.90625 C 142.742188 212.90625 138.875 216.1875 138.875 220.234375 C 138.875 224.28125 142.742188 227.5625 147.507812 227.5625 C 152.277344 227.5625 156.140625 224.28125 156.140625 220.234375 C 156.140625 216.1875 152.277344 212.90625 147.507812 212.90625 Z M 147.507812 212.90625 " clip-rule="nonzero"/></clipPath><clipPath id="a10abeaa08"><path d="M 141.757812 217.550781 L 146.476562 217.550781 L 146.476562 222.273438 L 141.757812 222.273438 Z M 141.757812 217.550781 " clip-rule="nonzero"/></clipPath><clipPath id="8f172edfbd"><path d="M 144.117188 217.550781 C 142.816406 217.550781 141.757812 218.609375 141.757812 219.914062 C 141.757812 221.214844 142.816406 222.273438 144.117188 222.273438 C 145.421875 222.273438 146.476562 221.214844 146.476562 219.914062 C 146.476562 218.609375 145.421875 217.550781 144.117188 217.550781 Z M 144.117188 217.550781 " clip-rule="nonzero"/></clipPath><clipPath id="8a72670442"><path d="M 148.296875 217.550781 L 153.015625 217.550781 L 153.015625 222.273438 L 148.296875 222.273438 Z M 148.296875 217.550781 " clip-rule="nonzero"/></clipPath><clipPath id="24c0f563f4"><path d="M 150.65625 217.550781 C 149.351562 217.550781 148.296875 218.609375 148.296875 219.914062 C 148.296875 221.214844 149.351562 222.273438 150.65625 222.273438 C 151.960938 222.273438 153.015625 221.214844 153.015625 219.914062 C 153.015625 218.609375 151.960938 217.550781 150.65625 217.550781 Z M 150.65625 217.550781 " clip-rule="nonzero"/></clipPath><clipPath id="39ab2289de"><path d="M 127 171 L 152 171 L 152 201 L 127 201 Z M 127 171 " clip-rule="nonzero"/></clipPath><clipPath id="6d0aed1670"><path d="M 142.140625 167.246094 L 156.050781 186.804688 L 136.496094 200.714844 L 122.585938 181.160156 Z M 142.140625 167.246094 " clip-rule="nonzero"/></clipPath><clipPath id="fbdd7a0442"><path d="M 142.140625 167.246094 L 156.050781 186.804688 L 136.496094 200.714844 L 122.585938 181.160156 Z M 142.140625 167.246094 " clip-rule="nonzero"/></clipPath><clipPath id="55d2db8054"><path d="M 130.710938 176.847656 L 148 176.847656 L 148 191.503906 L 130.710938 191.503906 Z M 130.710938 176.847656 " clip-rule="nonzero"/></clipPath><clipPath id="c07f46ea1a"><path d="M 139.34375 176.847656 C 134.574219 176.847656 130.710938 180.128906 130.710938 184.175781 C 130.710938 188.222656 134.574219 191.503906 139.34375 191.503906 C 144.109375 191.503906 147.976562 188.222656 147.976562 184.175781 C 147.976562 180.128906 144.109375 176.847656 139.34375 176.847656 Z M 139.34375 176.847656 " clip-rule="nonzero"/></clipPath><clipPath id="7bff525c65"><path d="M 133.871094 181.433594 L 138.589844 181.433594 L 138.589844 186.152344 L 133.871094 186.152344 Z M 133.871094 181.433594 " clip-rule="nonzero"/></clipPath><clipPath id="e8313f52f0"><path d="M 136.230469 181.433594 C 134.929688 181.433594 133.871094 182.488281 133.871094 183.792969 C 133.871094 185.09375 134.929688 186.152344 136.230469 186.152344 C 137.535156 186.152344 138.589844 185.09375 138.589844 183.792969 C 138.589844 182.488281 137.535156 181.433594 136.230469 181.433594 Z M 136.230469 181.433594 " clip-rule="nonzero"/></clipPath><clipPath id="71d949e17d"><path d="M 140.238281 181.433594 L 144.960938 181.433594 L 144.960938 186.152344 L 140.238281 186.152344 Z M 140.238281 181.433594 " clip-rule="nonzero"/></clipPath><clipPath id="a03ff50edb"><path d="M 142.601562 181.433594 C 141.296875 181.433594 140.238281 182.488281 140.238281 183.792969 C 140.238281 185.09375 141.296875 186.152344 142.601562 186.152344 C 143.902344 186.152344 144.960938 185.09375 144.960938 183.792969 C 144.960938 182.488281 143.902344 181.433594 142.601562 181.433594 Z M 142.601562 181.433594 " clip-rule="nonzero"/></clipPath><clipPath id="4e0f6c4363"><path d="M 176.722656 137.566406 L 184 137.566406 L 184 144.84375 L 176.722656 144.84375 Z M 176.722656 137.566406 " clip-rule="nonzero"/></clipPath><clipPath id="c39a4c9176"><path d="M 180.363281 137.566406 C 178.351562 137.566406 176.722656 139.195312 176.722656 141.207031 C 176.722656 143.214844 178.351562 144.84375 180.363281 144.84375 C 182.371094 144.84375 184 143.214844 184 141.207031 C 184 139.195312 182.371094 137.566406 180.363281 137.566406 Z M 180.363281 137.566406 " clip-rule="nonzero"/></clipPath><clipPath id="0160f2fe5d"><path d="M 222.746094 163.871094 L 230.621094 163.871094 L 230.621094 171.148438 L 222.746094 171.148438 Z M 222.746094 163.871094 " clip-rule="nonzero"/></clipPath><clipPath id="4b52c94aa9"><path d="M 226.671875 163.871094 C 224.503906 163.871094 222.746094 165.5 222.746094 167.507812 C 222.746094 169.519531 224.503906 171.148438 226.671875 171.148438 C 228.839844 171.148438 230.59375 169.519531 230.59375 167.507812 C 230.59375 165.5 228.839844 163.871094 226.671875 163.871094 Z M 226.671875 163.871094 " clip-rule="nonzero"/></clipPath><clipPath id="fe4c79a8bb"><path d="M 211.886719 182.742188 L 219.902344 182.742188 L 219.902344 190.019531 L 211.886719 190.019531 Z M 211.886719 182.742188 " clip-rule="nonzero"/></clipPath><clipPath id="4af8ae5bee"><path d="M 215.882812 182.742188 C 213.675781 182.742188 211.886719 184.371094 211.886719 186.378906 C 211.886719 188.390625 213.675781 190.019531 215.882812 190.019531 C 218.089844 190.019531 219.878906 188.390625 219.878906 186.378906 C 219.878906 184.371094 218.089844 182.742188 215.882812 182.742188 Z M 215.882812 182.742188 " clip-rule="nonzero"/></clipPath><clipPath id="714b037bfa"><path d="M 199.101562 199.652344 L 207.117188 199.652344 L 207.117188 206.929688 L 199.101562 206.929688 Z M 199.101562 199.652344 " clip-rule="nonzero"/></clipPath><clipPath id="8823f0a3eb"><path d="M 203.097656 199.652344 C 200.890625 199.652344 199.101562 201.28125 199.101562 203.289062 C 199.101562 205.300781 200.890625 206.929688 203.097656 206.929688 C 205.304688 206.929688 207.09375 205.300781 207.09375 203.289062 C 207.09375 201.28125 205.304688 199.652344 203.097656 199.652344 Z M 203.097656 199.652344 " clip-rule="nonzero"/></clipPath><clipPath id="bed3a7c3de"><path d="M 174.636719 224.992188 L 182.652344 224.992188 L 182.652344 232.269531 L 174.636719 232.269531 Z M 174.636719 224.992188 " clip-rule="nonzero"/></clipPath><clipPath id="3d36ae1d80"><path d="M 178.636719 224.992188 C 176.429688 224.992188 174.636719 226.621094 174.636719 228.632812 C 174.636719 230.640625 176.429688 232.269531 178.636719 232.269531 C 180.84375 232.269531 182.632812 230.640625 182.632812 228.632812 C 182.632812 226.621094 180.84375 224.992188 178.636719 224.992188 Z M 178.636719 224.992188 " clip-rule="nonzero"/></clipPath><clipPath id="1ca3562cbd"><path d="M 209.425781 138.214844 L 213.6875 138.214844 L 213.6875 141.859375 L 209.425781 141.859375 Z M 209.425781 138.214844 " clip-rule="nonzero"/></clipPath><clipPath id="770ac4b2a8"><path d="M 213.675781 139.5 C 211.800781 142.574219 210 141.976562 209.625 141.375 C 209.25 140.699219 209.550781 138.898438 210.148438 138.375 C 210.75 137.925781 213.148438 138.601562 213.148438 138.601562 " clip-rule="nonzero"/></clipPath><mask id="a6289a1f82"><g filter="url(#d2ed9f146f)"><rect x="-37.5" width="450" fill="#000000" y="-37.499999" height="449.999989" fill-opacity="0.5"/></g></mask><clipPath id="6a0a86d8f8"><path d="M 0.425781 0.214844 L 4.6875 0.214844 L 4.6875 3.859375 L 0.425781 3.859375 Z M 0.425781 0.214844 " clip-rule="nonzero"/></clipPath><clipPath id="270109f11a"><path d="M 4.675781 1.5 C 2.800781 4.574219 1 3.976562 0.625 3.375 C 0.25 2.699219 0.550781 0.898438 1.148438 0.375 C 1.75 -0.0742188 4.148438 0.601562 4.148438 0.601562 " clip-rule="nonzero"/></clipPath><clipPath id="d05d31cccd"><rect x="0" width="5" y="0" height="4"/></clipPath><clipPath id="4fbbc0764d"><path d="M 128.613281 158.613281 L 132.914062 158.613281 L 132.914062 162.222656 L 128.613281 162.222656 Z M 128.613281 158.613281 " clip-rule="nonzero"/></clipPath><clipPath id="241500ea78"><path d="M 132.898438 159.898438 C 130.949219 162.898438 129.226562 162.375 128.773438 161.699219 C 128.398438 161.101562 128.773438 159.226562 129.375 158.773438 C 129.898438 158.324219 132.300781 159 132.300781 159 " clip-rule="nonzero"/></clipPath><mask id="7776c6e9c6"><g filter="url(#d2ed9f146f)"><rect x="-37.5" width="450" fill="#000000" y="-37.499999" height="449.999989" fill-opacity="0.5"/></g></mask><clipPath id="34c585a6d8"><path d="M 0.613281 0.613281 L 4.914062 0.613281 L 4.914062 4.222656 L 0.613281 4.222656 Z M 0.613281 0.613281 " clip-rule="nonzero"/></clipPath><clipPath id="a90651e706"><path d="M 4.898438 1.898438 C 2.949219 4.898438 1.226562 4.375 0.773438 3.699219 C 0.398438 3.101562 0.773438 1.226562 1.375 0.773438 C 1.898438 0.324219 4.300781 1 4.300781 1 " clip-rule="nonzero"/></clipPath><clipPath id="4a173e4fda"><rect x="0" width="5" y="0" height="5"/></clipPath><clipPath id="5d2d28d806"><path d="M 135.175781 158.613281 L 139.4375 158.613281 L 139.4375 162.222656 L 135.175781 162.222656 Z M 135.175781 158.613281 " clip-rule="nonzero"/></clipPath><clipPath id="34b3bcdd72"><path d="M 139.425781 159.898438 C 137.550781 162.898438 135.75 162.375 135.375 161.699219 C 135 161.101562 135.300781 159.226562 135.898438 158.773438 C 136.5 158.324219 138.898438 159 138.898438 159 " clip-rule="nonzero"/></clipPath><mask id="99dec25017"><g filter="url(#d2ed9f146f)"><rect x="-37.5" width="450" fill="#000000" y="-37.499999" height="449.999989" fill-opacity="0.5"/></g></mask><clipPath id="f995e419ca"><path d="M 0.175781 0.613281 L 4.4375 0.613281 L 4.4375 4.222656 L 0.175781 4.222656 Z M 0.175781 0.613281 " clip-rule="nonzero"/></clipPath><clipPath id="18ac4a2104"><path d="M 4.425781 1.898438 C 2.550781 4.898438 0.75 4.375 0.375 3.699219 C 0 3.101562 0.300781 1.226562 0.898438 0.773438 C 1.5 0.324219 3.898438 1 3.898438 1 " clip-rule="nonzero"/></clipPath><clipPath id="c8d0b74067"><rect x="0" width="5" y="0" height="5"/></clipPath><clipPath id="3b63ac9682"><path d="M 133.714844 152.761719 L 138 152.761719 L 138 156.449219 L 133.714844 156.449219 Z M 133.714844 152.761719 " clip-rule="nonzero"/></clipPath><clipPath id="3a73d62c02"><path d="M 138 154.050781 C 136.050781 157.125 134.25 156.523438 133.875 155.925781 C 133.5 155.25 133.875 153.449219 134.476562 153 C 135 152.476562 137.398438 153.148438 137.398438 153.148438 " clip-rule="nonzero"/></clipPath><mask id="66f0875562"><g filter="url(#d2ed9f146f)"><rect x="-37.5" width="450" fill="#000000" y="-37.499999" height="449.999989" fill-opacity="0.5"/></g></mask><clipPath id="df9665fe92"><path d="M 0.714844 0.761719 L 5 0.761719 L 5 4.449219 L 0.714844 4.449219 Z M 0.714844 0.761719 " clip-rule="nonzero"/></clipPath><clipPath id="9a3052a013"><path d="M 5 2.050781 C 3.050781 5.125 1.25 4.523438 0.875 3.925781 C 0.5 3.25 0.875 1.449219 1.476562 1 C 2 0.476562 4.398438 1.148438 4.398438 1.148438 " clip-rule="nonzero"/></clipPath><clipPath id="af0b733ce0"><rect x="0" width="5" y="0" height="5"/></clipPath></defs><g clip-path="url(#b75a53198e)"><g clip-path="url(#f63837a33f)"><path fill="#151729" d="M 104.324219 111.277344 L 256.8125 111.277344 L 256.8125 260.273438 L 104.324219 260.273438 Z M 104.324219 111.277344 " fill-opacity="1" fill-rule="nonzero"/></g></g><g clip-path="url(#0304cf9d71)"><g clip-path="url(#53d18db1d7)"><path fill="#28b78d" d="M 109.257812 116.035156 L 252.011719 116.035156 L 252.011719 255.519531 L 109.257812 255.519531 Z M 109.257812 116.035156 " fill-opacity="1" fill-rule="nonzero"/></g></g><g clip-path="url(#bd2e99eaf7)"><g clip-path="url(#7ef4de5c55)"><path fill="#151729" d="M 114.015625 121.578125 L 246.929688 121.578125 L 246.929688 249.976562 L 114.015625 249.976562 Z M 114.015625 121.578125 " fill-opacity="1" fill-rule="nonzero"/></g></g><g fill="#28b78d" fill-opacity="1"><g transform="translate(152.109823, 222.819185)"><g><path d="M 40.59375 -46.578125 C 40.0625 -41.566406 38.085938 -37.570312 34.671875 -34.59375 C 31.265625 -31.613281 26.414062 -29.65625 20.125 -28.71875 L 44.609375 0 L 32.734375 0 L 8.3125 -28.546875 L 9.4375 -36.796875 L 14.640625 -36.796875 C 18.554688 -36.796875 21.5625 -37.125 23.65625 -37.78125 C 25.75 -38.445312 27.414062 -39.523438 28.65625 -41.015625 C 29.90625 -42.503906 30.738281 -44.359375 31.15625 -46.578125 L 8.3125 -46.578125 L 8.3125 -54.84375 L 31.03125 -54.84375 C 30.625 -56.832031 29.816406 -58.535156 28.609375 -59.953125 C 27.398438 -61.367188 25.863281 -62.359375 24 -62.921875 C 22.132812 -63.484375 19.46875 -63.765625 16 -63.765625 L 8.3125 -63.765625 L 8.3125 -72.03125 L 57.15625 -72.03125 L 57.15625 -63.765625 L 35.453125 -63.765625 C 38.117188 -61.804688 39.8125 -58.832031 40.53125 -54.84375 L 57.15625 -54.84375 L 57.15625 -46.578125 Z M 40.59375 -46.578125 "/></g></g></g><g clip-path="url(#175f89af8c)"><g clip-path="url(#14da68879e)"><path fill="#28b78d" d="M 174.636719 237.730469 L 183.636719 237.730469 L 183.636719 249.730469 L 174.636719 249.730469 Z M 174.636719 237.730469 " fill-opacity="1" fill-rule="nonzero"/></g></g><g clip-path="url(#5511d9c4e2)"><g clip-path="url(#63c06269bd)"><path fill="#28b78d" d="M 186.699219 229.066406 L 195.699219 229.066406 L 195.699219 248.566406 L 186.699219 248.566406 Z M 186.699219 229.066406 " fill-opacity="1" fill-rule="nonzero"/></g></g><g clip-path="url(#08c33959a8)"><g clip-path="url(#bea9f192d9)"><path fill="#28b78d" d="M 198.667969 212.492188 L 207.667969 212.492188 L 207.667969 245.492188 L 198.667969 245.492188 Z M 198.667969 212.492188 " fill-opacity="1" fill-rule="nonzero"/></g></g><g clip-path="url(#a0f385b761)"><g clip-path="url(#0acf054c90)"><path fill="#28b78d" d="M 210.632812 195.726562 L 219.632812 195.726562 L 219.632812 237.726562 L 210.632812 237.726562 Z M 210.632812 195.726562 " fill-opacity="1" fill-rule="nonzero"/></g></g><g clip-path="url(#65c380bdd6)"><g clip-path="url(#e527b55f8c)"><path fill="#28b78d" d="M 222.601562 176.074219 L 231.601562 176.074219 L 231.601562 222.574219 L 222.601562 222.574219 Z M 222.601562 176.074219 " fill-opacity="1" fill-rule="nonzero"/></g></g><g clip-path="url(#3401005400)"><g clip-path="url(#39435a7254)"><path stroke-linecap="butt" transform="matrix(0.75, 0, 0, 0.75, 134.256075, 182.200505)" fill="none" stroke-linejoin="miter" d="M 2.632525 -0.00171478 C 1.1794 -0.00171478 0.00231682 1.180577 0.00231682 2.633702 C 0.00231682 4.086827 1.1794 5.263911 2.632525 5.263911 C 4.085651 5.263911 5.267943 4.086827 5.267943 2.633702 C 5.267943 1.180577 4.085651 -0.00171478 2.632525 -0.00171478 Z M 2.632525 -0.00171478 " stroke="#151729" stroke-width="2" stroke-opacity="1" stroke-miterlimit="4"/></g></g><g clip-path="url(#ae171d64a8)"><g clip-path="url(#de4fd4f353)"><path stroke-linecap="butt" transform="matrix(0.75, 0, 0, 0.75, 140.240136, 182.200505)" fill="none" stroke-linejoin="miter" d="M 2.632944 -0.00171478 C 1.179819 -0.00171478 -0.00247312 1.180577 -0.00247312 2.633702 C -0.00247312 4.086827 1.179819 5.263911 2.632944 5.263911 C 4.086069 5.263911 5.263153 4.086827 5.263153 2.633702 C 5.263153 1.180577 4.086069 -0.00171478 2.632944 -0.00171478 Z M 2.632944 -0.00171478 " stroke="#151729" stroke-width="2" stroke-opacity="1" stroke-miterlimit="4"/></g></g><g clip-path="url(#760566b4a3)"><g clip-path="url(#4f4630da92)"><path stroke-linecap="butt" transform="matrix(0.75, 0, 0, 0.75, 131.057209, 176.467767)" fill="none" stroke-linejoin="miter" d="M 11.486222 0.00131092 C 5.142472 0.00131092 0.00184674 4.621103 0.00184674 10.31902 C 0.00184674 16.022145 5.142472 20.641937 11.486222 20.641937 C 17.835181 20.641937 22.975807 16.022145 22.975807 10.31902 C 22.975807 4.621103 17.835181 0.00131092 11.486222 0.00131092 Z M 11.486222 0.00131092 " stroke="#151729" stroke-width="2" stroke-opacity="1" stroke-miterlimit="4"/></g></g><g clip-path="url(#0dd90edf51)"><g clip-path="url(#7f7bf3d7ce)"><path fill="#28b78d" d="M 132.132812 216.335938 L 136.535156 216.335938 L 136.535156 222.546875 L 132.132812 222.546875 Z M 132.132812 216.335938 " fill-opacity="1" fill-rule="nonzero"/></g></g><g clip-path="url(#0449bc5b9e)"><g clip-path="url(#87c5b2be16)"><path fill="#28b78d" d="M 159.246094 216.335938 L 163.484375 216.335938 L 163.484375 223.34375 L 159.246094 223.34375 Z M 159.246094 216.335938 " fill-opacity="1" fill-rule="nonzero"/></g></g><g clip-path="url(#99751ae099)"><g clip-path="url(#c1eb086059)"><path fill="#28b78d" d="M 156.605469 150.96875 L 164.777344 150.96875 L 164.777344 159.140625 L 156.605469 159.140625 Z M 156.605469 150.96875 " fill-opacity="1" fill-rule="nonzero"/></g></g><g clip-path="url(#97ed1a6b1f)"><g clip-path="url(#7df500b264)"><path fill="#28b78d" d="M 156.605469 167.902344 L 164.777344 167.902344 L 164.777344 176.074219 L 156.605469 176.074219 Z M 156.605469 167.902344 " fill-opacity="1" fill-rule="nonzero"/></g></g><g clip-path="url(#5379225606)"><g clip-path="url(#5b65a5e8e3)"><path fill="#28b78d" d="M 204.851562 150.96875 L 213.023438 150.96875 L 213.023438 159.140625 L 204.851562 159.140625 Z M 204.851562 150.96875 " fill-opacity="1" fill-rule="nonzero"/></g></g><g clip-path="url(#d7514dc990)"><g clip-path="url(#39cb645f92)"><path fill="#28b78d" d="M 204.851562 167.902344 L 213.023438 167.902344 L 213.023438 176.074219 L 204.851562 176.074219 Z M 204.851562 167.902344 " fill-opacity="1" fill-rule="nonzero"/></g></g><g clip-path="url(#0ce17300a6)"><g clip-path="url(#a9bb2cfb12)"><path fill="#28b78d" d="M 158.148438 186.152344 L 166.933594 186.152344 L 166.933594 194.9375 L 158.148438 194.9375 Z M 158.148438 186.152344 " fill-opacity="1" fill-rule="nonzero"/></g></g><g clip-path="url(#55d6550b19)"><g clip-path="url(#ddde49e080)"><g clip-path="url(#da86b332d8)"><path fill="#28b78d" d="M 143.570312 231.492188 C 140.5625 230.460938 138.136719 228.324219 136.738281 225.46875 C 135.339844 222.613281 135.136719 219.386719 136.167969 216.378906 C 137.195312 213.371094 139.335938 210.945312 142.191406 209.546875 C 145.046875 208.148438 148.273438 207.945312 151.28125 208.972656 C 154.289062 210.003906 156.714844 212.144531 158.113281 214.996094 C 159.511719 217.851562 159.714844 221.082031 158.683594 224.089844 C 158.109375 225.761719 157.109375 227.15625 157.0625 227.21875 C 156.664062 227.769531 156.21875 228.285156 155.730469 228.761719 L 154.925781 234.714844 C 154.910156 234.832031 154.835938 234.9375 154.730469 234.988281 C 154.625 235.042969 154.5 235.039062 154.394531 234.984375 L 149.027344 232.027344 C 148.316406 232.121094 147.597656 232.15625 146.882812 232.125 C 146.8125 232.121094 145.167969 232.039062 143.570312 231.492188 Z M 143.570312 231.492188 " fill-opacity="1" fill-rule="nonzero"/></g></g></g><g clip-path="url(#1c6c60e5b0)"><g clip-path="url(#3304324b70)"><path fill="#151729" d="M 138.875 212.90625 L 156.167969 212.90625 L 156.167969 227.5625 L 138.875 227.5625 Z M 138.875 212.90625 " fill-opacity="1" fill-rule="nonzero"/></g></g><g clip-path="url(#a10abeaa08)"><g clip-path="url(#8f172edfbd)"><path fill="#28b78d" d="M 141.757812 217.550781 L 146.476562 217.550781 L 146.476562 222.273438 L 141.757812 222.273438 Z M 141.757812 217.550781 " fill-opacity="1" fill-rule="nonzero"/></g></g><g clip-path="url(#8a72670442)"><g clip-path="url(#24c0f563f4)"><path fill="#28b78d" d="M 148.296875 217.550781 L 153.015625 217.550781 L 153.015625 222.273438 L 148.296875 222.273438 Z M 148.296875 217.550781 " fill-opacity="1" fill-rule="nonzero"/></g></g><g clip-path="url(#39ab2289de)"><g clip-path="url(#6d0aed1670)"><g clip-path="url(#fbdd7a0442)"><path fill="#28b78d" d="M 129.644531 190.742188 C 127.800781 188.152344 127.078125 184.996094 127.605469 181.863281 C 128.136719 178.730469 129.855469 175.988281 132.445312 174.144531 C 135.035156 172.304688 138.1875 171.578125 141.320312 172.109375 C 144.457031 172.636719 147.195312 174.355469 149.039062 176.945312 C 150.882812 179.535156 151.605469 182.6875 151.078125 185.820312 C 150.546875 188.957031 148.832031 191.699219 146.238281 193.539062 C 144.796875 194.566406 143.171875 195.113281 143.097656 195.136719 C 142.453125 195.351562 141.789062 195.511719 141.117188 195.613281 L 136.988281 199.980469 C 136.90625 200.066406 136.789062 200.109375 136.671875 200.089844 C 136.554688 200.070312 136.453125 199.996094 136.402344 199.890625 L 133.765625 194.355469 C 133.132812 194.023438 132.527344 193.628906 131.96875 193.1875 C 131.914062 193.144531 130.621094 192.117188 129.644531 190.742188 Z M 129.644531 190.742188 " fill-opacity="1" fill-rule="nonzero"/></g></g></g><g clip-path="url(#55d2db8054)"><g clip-path="url(#c07f46ea1a)"><path fill="#151729" d="M 130.710938 176.847656 L 148 176.847656 L 148 191.503906 L 130.710938 191.503906 Z M 130.710938 176.847656 " fill-opacity="1" fill-rule="nonzero"/></g></g><g clip-path="url(#7bff525c65)"><g clip-path="url(#e8313f52f0)"><path fill="#28b78d" d="M 133.871094 181.433594 L 138.589844 181.433594 L 138.589844 186.152344 L 133.871094 186.152344 Z M 133.871094 181.433594 " fill-opacity="1" fill-rule="nonzero"/></g></g><g clip-path="url(#71d949e17d)"><g clip-path="url(#a03ff50edb)"><path fill="#28b78d" d="M 140.238281 181.433594 L 144.960938 181.433594 L 144.960938 186.152344 L 140.238281 186.152344 Z M 140.238281 181.433594 " fill-opacity="1" fill-rule="nonzero"/></g></g><g clip-path="url(#4e0f6c4363)"><g clip-path="url(#c39a4c9176)"><path fill="#28b78d" d="M 176.722656 137.566406 L 184 137.566406 L 184 144.84375 L 176.722656 144.84375 Z M 176.722656 137.566406 " fill-opacity="1" fill-rule="nonzero"/></g></g><g clip-path="url(#0160f2fe5d)"><g clip-path="url(#4b52c94aa9)"><path fill="#28b78d" d="M 222.746094 163.871094 L 230.59375 163.871094 L 230.59375 171.148438 L 222.746094 171.148438 Z M 222.746094 163.871094 " fill-opacity="1" fill-rule="nonzero"/></g></g><g clip-path="url(#fe4c79a8bb)"><g clip-path="url(#4af8ae5bee)"><path fill="#28b78d" d="M 211.886719 182.742188 L 219.871094 182.742188 L 219.871094 190.019531 L 211.886719 190.019531 Z M 211.886719 182.742188 " fill-opacity="1" fill-rule="nonzero"/></g></g><g clip-path="url(#714b037bfa)"><g clip-path="url(#8823f0a3eb)"><path fill="#28b78d" d="M 199.101562 199.652344 L 207.085938 199.652344 L 207.085938 206.929688 L 199.101562 206.929688 Z M 199.101562 199.652344 " fill-opacity="1" fill-rule="nonzero"/></g></g><g clip-path="url(#bed3a7c3de)"><g clip-path="url(#3d36ae1d80)"><path fill="#28b78d" d="M 174.636719 224.992188 L 182.625 224.992188 L 182.625 232.269531 L 174.636719 232.269531 Z M 174.636719 224.992188 " fill-opacity="1" fill-rule="nonzero"/></g></g><g clip-path="url(#1ca3562cbd)"><g clip-path="url(#770ac4b2a8)"><g mask="url(#a6289a1f82)"><g transform="matrix(1, 0, 0, 1, 209, 138)"><g clip-path="url(#d05d31cccd)"><g clip-path="url(#6a0a86d8f8)"><g clip-path="url(#270109f11a)"><rect x="-291.5" width="540" fill="#28b78d" height="539.999987" y="-220.499998" fill-opacity="1"/></g></g></g></g></g></g></g><g clip-path="url(#4fbbc0764d)"><g clip-path="url(#241500ea78)"><g mask="url(#7776c6e9c6)"><g transform="matrix(1, 0, 0, 1, 128, 158)"><g clip-path="url(#4a173e4fda)"><g clip-path="url(#34c585a6d8)"><g clip-path="url(#a90651e706)"><rect x="-210.5" width="540" fill="#28b78d" height="539.999987" y="-240.499998" fill-opacity="1"/></g></g></g></g></g></g></g><g clip-path="url(#5d2d28d806)"><g clip-path="url(#34b3bcdd72)"><g mask="url(#99dec25017)"><g transform="matrix(1, 0, 0, 1, 135, 158)"><g clip-path="url(#c8d0b74067)"><g clip-path="url(#f995e419ca)"><g clip-path="url(#18ac4a2104)"><rect x="-217.5" width="540" fill="#28b78d" height="539.999987" y="-240.499998" fill-opacity="1"/></g></g></g></g></g></g></g><g clip-path="url(#3b63ac9682)"><g clip-path="url(#3a73d62c02)"><g mask="url(#66f0875562)"><g transform="matrix(1, 0, 0, 1, 133, 152)"><g clip-path="url(#af0b733ce0)"><g clip-path="url(#df9665fe92)"><g clip-path="url(#9a3052a013)"><rect x="-215.5" width="540" fill="#28b78d" height="539.999987" y="-234.499998" fill-opacity="1"/></g></g></g></g></g></g></g></svg>